<svg xmlns="http://www.w3.org/2000/svg" width="16" height="16" viewBox="0 0 16 16">
    <g fill="none" fill-rule="evenodd">
        <path d="M0 0H16V16H0z"/>
        <g fill="#5D6D74">
            <path fill-rule="nonzero" d="M1 0h4c.552 0 1 .448 1 1v4c0 .552-.448 1-1 1H1c-.552 0-1-.448-1-1V1c0-.552.448-1 1-1zm1 2v2h2V2H2zM9 8h4c.552 0 1 .448 1 1v4c0 .552-.448 1-1 1H9c-.552 0-1-.448-1-1V9c0-.552.448-1 1-1zm1 2v2h2v-2h-2zM11 6c1.657 0 3-1.343 3-3s-1.343-3-3-3-3 1.343-3 3 1.343 3 3 3zm0-1.9c-.607 0-1.1-.492-1.1-1.1 0-.608.493-1.1 1.1-1.1.608 0 1.1.492 1.1 1.1 0 .608-.492 1.1-1.1 1.1z" transform="translate(1 1)"/>
            <path d="M1.641 10.999L.281 9.638c-.375-.373-.375-.984 0-1.357.373-.374.984-.374 1.358 0l1.36 1.36 1.361-1.36c.373-.374.984-.374 1.357 0 .375.373.375.984 0 1.357l-1.36 1.36 1.36 1.362c.375.374.375.984 0 1.358-.372.374-.983.374-1.356 0l-1.362-1.362-1.361 1.362c-.374.374-.984.374-1.358 0-.373-.374-.373-.984 0-1.358l1.361-1.361z" transform="translate(1 1)"/>
        </g>
    </g>
</svg>
