<svg xmlns="http://www.w3.org/2000/svg" width="16" height="16" viewBox="0 0 16 16">
    <g fill="none" fill-rule="evenodd">
        <g>
            <g>
                <path d="M0 0H16V16H0z" transform="translate(-410 -327) translate(410 327)"/>
                <path fill="#5D6D74" fill-rule="nonzero" d="M3.413 7.994l3.293-3.286c.391-.39.392-1.023.002-1.414s-1.022-.392-1.413-.002L1.294 7.284c-.391.39-.392 1.024-.002 1.415l4.002 4.01c.39.391 1.022.392 1.413.002.39-.39.39-1.024 0-1.415L3.414 7.994zM12.585 7.995l-3.292 3.297c-.39.391-.39 1.025 0 1.415.391.39 1.024.39 1.414 0l4-4.006c.39-.39.39-1.024-.001-1.415l-3.993-3.993c-.39-.39-1.024-.39-1.414 0-.39.391-.39 1.025 0 1.415l3.286 3.287z" transform="translate(-410 -327) translate(410 327)"/>
            </g>
        </g>
    </g>
</svg>
